<?xml version="1.0" encoding="UTF-8"?>
<svg xmlns="http://www.w3.org/2000/svg" version="1.1" xmlns:xlink="http://www.w3.org/1999/xlink" viewBox="0 0 1000 1000" width="120" height="120">
  <defs>
    <style>
      .cls-1 {
        fill: #ffc102;
      }

      .cls-2 {
        fill: #7d0121;
      }

      .cls-3 {
        fill: #7e001f;
      }

      .cls-4 {
        fill: url(#_Безымянный_градиент_35);
      }
    </style>
    <radialGradient id="_Безымянный_градиент_35" data-name="Безымянный градиент 35" cx="506.52" cy="502.51" fx="743.75" fy="396.12" r="260" gradientUnits="userSpaceOnUse">
      <stop offset=".2" stop-color="gold"/>
      <stop offset=".58" stop-color="#ffcb01"/>
      <stop offset="1" stop-color="#ffc502"/>
    </radialGradient>
  </defs>
  <!-- Generator: Adobe Illustrator 28.6.0, SVG Export Plug-In . SVG Version: 1.2.0 Build 709)  -->
  <g>
    <g id="_Слой_1" data-name="Слой_1">
      <polygon class="cls-1" points="501 0 507.8 240.41 527.17 .69 521.37 241.13 553.26 2.74 534.89 242.55 579.22 6.16 548.32 244.67 604.96 10.93 561.62 247.5 630.41 17.04 574.75 251.02 655.51 24.47 587.68 255.22 680.18 33.21 600.37 260.09 704.37 43.23 612.79 265.62 728 54.5 624.91 271.79 751 66.99 636.68 278.59 773.32 80.66 648.08 286 794.89 95.49 659.08 293.99 815.66 111.43 669.65 302.54 835.57 128.43 679.75 311.64 854.55 146.45 689.36 321.25 872.57 165.43 698.46 331.35 889.57 185.34 707.01 341.92 905.51 206.11 715 352.92 920.34 227.68 722.41 364.32 934.01 250 729.21 376.09 946.5 273 735.38 388.21 957.77 296.63 740.91 400.63 967.79 320.82 745.78 413.32 976.53 345.49 749.98 426.25 983.96 370.59 753.5 439.38 990.07 396.04 756.33 452.68 994.84 421.78 758.45 466.11 998.26 447.74 759.87 479.63 1000.31 473.83 760.59 493.2 1001 500 760.59 506.8 1000.31 526.17 759.87 520.37 998.26 552.26 758.45 533.89 994.84 578.22 756.33 547.32 990.07 603.96 753.5 560.62 983.96 629.41 749.98 573.75 976.53 654.51 745.78 586.68 967.79 679.18 740.91 599.37 957.77 703.37 735.38 611.79 946.5 727 729.21 623.91 934.01 750 722.41 635.68 920.34 772.32 715 647.08 905.51 793.89 707.01 658.08 889.57 814.66 698.46 668.65 872.57 834.57 689.36 678.75 854.55 853.55 679.75 688.36 835.57 871.57 669.65 697.46 815.66 888.57 659.08 706.01 794.89 904.51 648.08 714 773.32 919.34 636.68 721.41 751 933.01 624.91 728.21 728 945.5 612.79 734.38 704.37 956.77 600.37 739.91 680.18 966.79 587.68 744.78 655.51 975.53 574.75 748.98 630.41 982.96 561.62 752.5 604.96 989.07 548.32 755.33 579.22 993.84 534.89 757.45 553.26 997.26 521.37 758.87 527.17 999.31 507.8 759.59 501 1000 494.2 759.59 474.83 999.31 480.63 758.87 448.74 997.26 467.11 757.45 422.78 993.84 453.68 755.33 397.04 989.07 440.38 752.5 371.59 982.96 427.25 748.98 346.49 975.53 414.32 744.78 321.82 966.79 401.63 739.91 297.63 956.77 389.21 734.38 274 945.5 377.09 728.21 251 933.01 365.32 721.41 228.68 919.34 353.92 714 207.11 904.51 342.92 706.01 186.34 888.57 332.35 697.46 166.43 871.57 322.25 688.36 147.45 853.55 312.64 678.75 129.43 834.57 303.54 668.65 112.43 814.66 294.99 658.08 96.49 793.89 287 647.08 81.66 772.32 279.59 635.68 67.99 750 272.79 623.91 55.5 727 266.62 611.79 44.23 703.37 261.09 599.37 34.21 679.18 256.22 586.68 25.47 654.51 252.02 573.75 18.04 629.41 248.5 560.62 11.93 603.96 245.67 547.32 7.16 578.22 243.55 533.89 3.74 552.26 242.13 520.37 1.69 526.17 241.41 506.8 1 500 241.41 493.2 1.69 473.83 242.13 479.63 3.74 447.74 243.55 466.11 7.16 421.78 245.67 452.68 11.93 396.04 248.5 439.38 18.04 370.59 252.02 426.25 25.47 345.49 256.22 413.32 34.21 320.82 261.09 400.63 44.23 296.63 266.62 388.21 55.5 273 272.79 376.09 67.99 250 279.59 364.32 81.66 227.68 287 352.92 96.49 206.11 294.99 341.92 112.43 185.34 303.54 331.35 129.43 165.43 312.64 321.25 147.45 146.45 322.25 311.64 166.43 128.43 332.35 302.54 186.34 111.43 342.92 293.99 207.11 95.49 353.92 286 228.68 80.66 365.32 278.59 251 66.99 377.09 271.79 274 54.5 389.21 265.62 297.63 43.23 401.63 260.09 321.82 33.21 414.32 255.22 346.49 24.47 427.25 251.02 371.59 17.04 440.38 247.5 397.04 10.93 453.68 244.67 422.78 6.16 467.11 242.55 448.74 2.74 480.63 241.13 474.83 .69 494.2 240.41 501 0"/>
      <circle class="cls-4" cx="506.52" cy="502.51" r="260"/>
      <rect class="cls-3" x="327.52" y="602.51" width="75" height="75"/>
      <rect class="cls-3" x="604.52" y="602.51" width="75" height="75"/>
      <rect class="cls-3" x="408.52" y="602.51" width="190" height="20"/>
      <rect class="cls-3" x="408.52" y="629.51" width="190" height="20"/>
      <rect class="cls-3" x="409.52" y="656.51" width="190" height="20"/>
      <polygon class="cls-3" points="504.52 266.01 354.52 351.01 654.52 351.01 504.52 266.01"/>
      <rect class="cls-3" x="303.52" y="358.51" width="400" height="20"/>
      <rect class="cls-3" x="329.52" y="377.01" width="350" height="33"/>
      <rect class="cls-3" x="341.19" y="422.79" width="35" height="166.14"/>
      <rect class="cls-3" x="336.19" y="417.36" width="45" height="8.98"/>
      <rect class="cls-3" x="336.19" y="588.38" width="45" height="8.98"/>
      <rect class="cls-3" x="396.19" y="422.79" width="35" height="166.14"/>
      <rect class="cls-3" x="391.19" y="417.36" width="45" height="8.98"/>
      <rect class="cls-3" x="391.19" y="588.38" width="45" height="8.98"/>
      <rect class="cls-3" x="453.19" y="422.79" width="35" height="166.14"/>
      <rect class="cls-3" x="448.19" y="417.36" width="45" height="8.98"/>
      <rect class="cls-3" x="448.19" y="588.38" width="45" height="8.98"/>
      <rect class="cls-3" x="511.19" y="422.79" width="35" height="166.14"/>
      <rect class="cls-3" x="506.19" y="417.36" width="45" height="8.98"/>
      <rect class="cls-3" x="506.19" y="588.38" width="45" height="8.98"/>
      <rect class="cls-3" x="630.01" y="422" width="35.17" height="166.93"/>
      <rect class="cls-2" x="625.19" y="417.36" width="45" height="8.98"/>
      <rect class="cls-3" x="625.19" y="588.38" width="45" height="8.98"/>
      <rect class="cls-3" x="571.19" y="422.79" width="35" height="166.14"/>
      <rect class="cls-3" x="566.19" y="417.36" width="45" height="8.98"/>
      <rect class="cls-3" x="566.19" y="588.38" width="45" height="8.98"/>
    </g>
  </g>
</svg>